<svg width="178" height="24" viewBox="0 0 178 24" fill="none" xmlns="http://www.w3.org/2000/svg">
<path d="M49.2103 11.7199H41.0778V19H39.1426V2.91921H41.0778V10.015H49.2103V2.91921H51.1456V19H49.2103V11.7199Z" fill="#0FAC73"/>
<path d="M59.7166 19.2764C58.9025 19.2764 58.1653 19.1305 57.5049 18.8387C56.8598 18.5469 56.2992 18.1322 55.8231 17.5946C55.3623 17.0417 55.0014 16.389 54.7403 15.6364C54.4945 14.8684 54.3717 14.0083 54.3717 13.0561C54.3717 12.1192 54.4945 11.2668 54.7403 10.4988C55.0014 9.73088 55.3623 9.07813 55.8231 8.54057C56.2992 7.98765 56.8598 7.56528 57.5049 7.27346C58.1653 6.98164 58.9025 6.83573 59.7166 6.83573C60.5152 6.83573 61.2294 6.98164 61.8591 7.27346C62.4888 7.56528 63.0264 7.97229 63.4718 8.49449C63.9172 9.00134 64.2551 9.60801 64.4855 10.3145C64.7312 11.021 64.8541 11.7967 64.8541 12.6414V13.5169H56.3069V14.0698C56.3069 14.5766 56.3837 15.0527 56.5373 15.4982C56.7062 15.9282 56.9366 16.3045 57.2284 16.627C57.5356 16.9496 57.9042 17.203 58.3343 17.3873C58.7797 17.5716 59.2788 17.6638 59.8317 17.6638C60.5843 17.6638 61.2371 17.4871 61.79 17.1339C62.3583 16.7806 62.796 16.2738 63.1032 15.6133L64.4164 16.5579C64.0324 17.3719 63.4334 18.0324 62.6194 18.5392C61.8054 19.0307 60.8378 19.2764 59.7166 19.2764ZM59.7166 8.3793C59.2097 8.3793 58.7489 8.47145 58.3343 8.65576C57.9196 8.82471 57.5586 9.07045 57.2514 9.39299C56.9596 9.71553 56.7292 10.0995 56.5603 10.5449C56.3913 10.975 56.3069 11.4511 56.3069 11.9733V12.1346H62.8728V11.8811C62.8728 10.8214 62.581 9.97663 61.9974 9.34691C61.4291 8.70184 60.6688 8.3793 59.7166 8.3793Z" fill="#0FAC73"/>
<path d="M76.5306 19C75.8394 19 75.3403 18.8157 75.0331 18.4471C74.7413 18.0784 74.557 17.6177 74.4802 17.0648H74.365C74.1039 17.802 73.6738 18.3549 73.0748 18.7235C72.4758 19.0921 71.7617 19.2764 70.9323 19.2764C69.6728 19.2764 68.6899 18.9539 67.9834 18.3088C67.2922 17.6638 66.9466 16.7883 66.9466 15.6825C66.9466 14.5613 67.3536 13.7012 68.1677 13.1022C68.9971 12.5032 70.2795 12.2037 72.0151 12.2037H74.365V11.0287C74.365 10.184 74.1346 9.5389 73.6738 9.09349C73.2131 8.64808 72.5066 8.42538 71.5543 8.42538C70.8324 8.42538 70.2258 8.58665 69.7343 8.90918C69.2582 9.23172 68.8588 9.66177 68.5363 10.1993L67.4304 9.16261C67.753 8.51753 68.2675 7.97229 68.974 7.52688C69.6805 7.06611 70.5713 6.83573 71.6465 6.83573C73.0902 6.83573 74.2114 7.18899 75.0101 7.8955C75.8087 8.60201 76.2081 9.58498 76.2081 10.8444V17.3873H77.5673V19H76.5306ZM71.2318 17.7098C71.6925 17.7098 72.1149 17.6561 72.4989 17.5486C72.8829 17.4411 73.2131 17.2875 73.4895 17.0878C73.766 16.8881 73.981 16.6578 74.1346 16.3967C74.2882 16.1355 74.365 15.8514 74.365 15.5442V13.586H71.9229C70.8632 13.586 70.0875 13.7396 69.596 14.0467C69.1199 14.3539 68.8819 14.7993 68.8819 15.383V15.8668C68.8819 16.4504 69.0892 16.9035 69.5039 17.226C69.9339 17.5486 70.5099 17.7098 71.2318 17.7098Z" fill="#0FAC73"/>
<path d="M82.1561 19C81.511 19 81.0195 18.8234 80.6816 18.4701C80.3591 18.1015 80.1978 17.6407 80.1978 17.0878V1.9516H82.0409V17.3873H83.7918V19H82.1561Z" fill="#0FAC73"/>
<path d="M88.9888 19C88.3437 19 87.8522 18.8234 87.5143 18.4701C87.1918 18.1015 87.0305 17.6254 87.0305 17.0417V8.72488H85.0722V7.11219H86.1781C86.5774 7.11219 86.8462 7.0354 86.9844 6.88181C87.138 6.71286 87.2148 6.42872 87.2148 6.02939V3.81771H88.8736V7.11219H91.4769V8.72488H88.8736V17.3873H91.2926V19H88.9888Z" fill="#0FAC73"/>
<path d="M94.4393 1.9516H96.2824V9.04741H96.3745C96.6664 8.37162 97.0734 7.83406 97.5956 7.43473C98.1331 7.0354 98.8473 6.83573 99.7381 6.83573C100.967 6.83573 101.934 7.23506 102.641 8.03373C103.363 8.81703 103.724 9.93055 103.724 11.3743V19H101.881V11.6968C101.881 9.56194 100.982 8.49449 99.1852 8.49449C98.8166 8.49449 98.4557 8.54057 98.1024 8.63272C97.7645 8.72488 97.4573 8.86311 97.1809 9.04741C96.9044 9.23172 96.6817 9.46978 96.5128 9.7616C96.3592 10.0381 96.2824 10.3683 96.2824 10.7523V19H94.4393V1.9516Z" fill="#0FAC73"/>
<path d="M112.233 19.2764C110.928 19.2764 109.814 19.0307 108.893 18.5392C107.971 18.0324 107.188 17.3412 106.543 16.4658L107.971 15.2678C108.539 16.0204 109.169 16.5963 109.86 16.9956C110.551 17.3796 111.365 17.5716 112.302 17.5716C113.454 17.5716 114.33 17.2951 114.929 16.7422C115.543 16.1893 115.85 15.4521 115.85 14.5305C115.85 13.7626 115.62 13.1713 115.159 12.7566C114.698 12.3419 113.938 12.0117 112.878 11.7659L111.565 11.4664C110.091 11.1285 108.962 10.6217 108.178 9.94591C107.411 9.25476 107.027 8.28715 107.027 7.04308C107.027 6.33657 107.157 5.70685 107.418 5.15393C107.679 4.60101 108.04 4.14024 108.501 3.77163C108.977 3.40301 109.538 3.12655 110.183 2.94225C110.843 2.74258 111.565 2.64275 112.348 2.64275C113.562 2.64275 114.598 2.86545 115.459 3.31086C116.334 3.75627 117.071 4.40902 117.67 5.26912L116.219 6.32889C115.773 5.71453 115.236 5.23072 114.606 4.87747C113.976 4.52422 113.193 4.34759 112.256 4.34759C111.227 4.34759 110.413 4.57029 109.814 5.0157C109.231 5.44575 108.939 6.0985 108.939 6.97396C108.939 7.74191 109.184 8.32554 109.676 8.72488C110.183 9.10885 110.943 9.41603 111.957 9.64641L113.27 9.94591C114.852 10.2992 115.996 10.8367 116.703 11.5586C117.409 12.2805 117.762 13.2404 117.762 14.4384C117.762 15.1756 117.632 15.8437 117.371 16.4427C117.125 17.0417 116.764 17.5486 116.288 17.9633C115.812 18.3779 115.228 18.7005 114.537 18.9309C113.861 19.1613 113.093 19.2764 112.233 19.2764Z" fill="#0FAC73"/>
<path d="M128.523 17.0648H128.43C127.709 18.5392 126.549 19.2764 124.952 19.2764C124.214 19.2764 123.546 19.1305 122.947 18.8387C122.348 18.5469 121.834 18.1322 121.404 17.5946C120.989 17.0571 120.667 16.4043 120.436 15.6364C120.221 14.8684 120.114 14.0083 120.114 13.0561C120.114 12.1038 120.221 11.2437 120.436 10.4758C120.667 9.70785 120.989 9.05509 121.404 8.51753C121.834 7.97997 122.348 7.56528 122.947 7.27346C123.546 6.98164 124.214 6.83573 124.952 6.83573C125.781 6.83573 126.488 7.02004 127.071 7.38865C127.67 7.74191 128.123 8.29483 128.43 9.04741H128.523V7.11219H130.366V23.6077H128.523V17.0648ZM125.458 17.6177C125.873 17.6177 126.265 17.5639 126.633 17.4564C127.017 17.3489 127.348 17.1953 127.624 16.9956C127.901 16.7806 128.116 16.5272 128.269 16.2354C128.438 15.9282 128.523 15.5826 128.523 15.1987V10.7753C128.523 10.4528 128.438 10.1533 128.269 9.87679C128.116 9.58497 127.901 9.33923 127.624 9.13957C127.348 8.9399 127.017 8.78631 126.633 8.6788C126.265 8.55593 125.873 8.49449 125.458 8.49449C124.414 8.49449 123.592 8.82471 122.993 9.48514C122.394 10.1302 122.095 10.9826 122.095 12.0424V14.0698C122.095 15.1295 122.394 15.9896 122.993 16.6501C123.592 17.2951 124.414 17.6177 125.458 17.6177Z" fill="#0FAC73"/>
<path d="M141.61 17.0648H141.518C141.395 17.3412 141.242 17.6177 141.057 17.8941C140.888 18.1552 140.673 18.3933 140.412 18.6083C140.151 18.808 139.836 18.9693 139.468 19.0921C139.099 19.215 138.669 19.2764 138.177 19.2764C136.949 19.2764 135.973 18.8848 135.252 18.1015C134.53 17.3028 134.169 16.1816 134.169 14.7379V7.11219H136.012V14.4154C136.012 16.5502 136.918 17.6177 138.73 17.6177C139.099 17.6177 139.452 17.5716 139.79 17.4795C140.143 17.3873 140.451 17.2491 140.712 17.0648C140.988 16.8805 141.203 16.6501 141.357 16.3736C141.526 16.0818 141.61 15.7362 141.61 15.3369V7.11219H143.453V19H141.61V17.0648Z" fill="#0FAC73"/>
<path d="M156.017 19C155.326 19 154.827 18.8157 154.52 18.4471C154.228 18.0784 154.044 17.6177 153.967 17.0648H153.852C153.591 17.802 153.161 18.3549 152.562 18.7235C151.963 19.0921 151.248 19.2764 150.419 19.2764C149.16 19.2764 148.177 18.9539 147.47 18.3088C146.779 17.6638 146.433 16.7883 146.433 15.6825C146.433 14.5613 146.84 13.7012 147.655 13.1022C148.484 12.5032 149.766 12.2037 151.502 12.2037H153.852V11.0287C153.852 10.184 153.621 9.5389 153.161 9.09349C152.7 8.64808 151.993 8.42538 151.041 8.42538C150.319 8.42538 149.713 8.58665 149.221 8.90918C148.745 9.23172 148.346 9.66177 148.023 10.1993L146.917 9.16261C147.24 8.51753 147.754 7.97229 148.461 7.52688C149.167 7.06611 150.058 6.83573 151.133 6.83573C152.577 6.83573 153.698 7.18899 154.497 7.8955C155.296 8.60201 155.695 9.58498 155.695 10.8444V17.3873H157.054V19H156.017ZM150.719 17.7098C151.179 17.7098 151.602 17.6561 151.986 17.5486C152.37 17.4411 152.7 17.2875 152.976 17.0878C153.253 16.8881 153.468 16.6578 153.621 16.3967C153.775 16.1355 153.852 15.8514 153.852 15.5442V13.586H151.41C150.35 13.586 149.574 13.7396 149.083 14.0467C148.607 14.3539 148.369 14.7993 148.369 15.383V15.8668C148.369 16.4504 148.576 16.9035 148.991 17.226C149.421 17.5486 149.997 17.7098 150.719 17.7098Z" fill="#0FAC73"/>
<path d="M159.685 19V7.11219H161.528V9.30084H161.643C161.858 8.73256 162.242 8.22571 162.795 7.7803C163.348 7.33489 164.108 7.11219 165.076 7.11219H165.79V8.95526H164.707C163.709 8.95526 162.925 9.14725 162.357 9.53122C161.804 9.89983 161.528 10.3683 161.528 10.9366V19H159.685Z" fill="#0FAC73"/>
<path d="M172.501 19.2764C171.687 19.2764 170.95 19.1305 170.289 18.8387C169.644 18.5469 169.084 18.1322 168.608 17.5946C168.147 17.0417 167.786 16.389 167.525 15.6364C167.279 14.8684 167.156 14.0083 167.156 13.0561C167.156 12.1192 167.279 11.2668 167.525 10.4988C167.786 9.73088 168.147 9.07813 168.608 8.54057C169.084 7.98765 169.644 7.56528 170.289 7.27346C170.95 6.98164 171.687 6.83573 172.501 6.83573C173.3 6.83573 174.014 6.98164 174.644 7.27346C175.273 7.56528 175.811 7.97229 176.256 8.49449C176.702 9.00134 177.04 9.60801 177.27 10.3145C177.516 11.021 177.639 11.7967 177.639 12.6414V13.5169H169.091V14.0698C169.091 14.5766 169.168 15.0527 169.322 15.4982C169.491 15.9282 169.721 16.3045 170.013 16.627C170.32 16.9496 170.689 17.203 171.119 17.3873C171.564 17.5716 172.063 17.6638 172.616 17.6638C173.369 17.6638 174.022 17.4871 174.574 17.1339C175.143 16.7806 175.58 16.2738 175.888 15.6133L177.201 16.5579C176.817 17.3719 176.218 18.0324 175.404 18.5392C174.59 19.0307 173.622 19.2764 172.501 19.2764ZM172.501 8.3793C171.994 8.3793 171.533 8.47145 171.119 8.65576C170.704 8.82471 170.343 9.07045 170.036 9.39299C169.744 9.71553 169.514 10.0995 169.345 10.5449C169.176 10.975 169.091 11.4511 169.091 11.9733V12.1346H175.657V11.8811C175.657 10.8214 175.365 9.97663 174.782 9.34691C174.214 8.70184 173.453 8.3793 172.501 8.3793Z" fill="#0FAC73"/>
<path fill-rule="evenodd" clip-rule="evenodd" d="M16 0H25V23H16V16H9V23H0V16V7V0H9V7L16 7V0Z" fill="#0FAC73"/>
</svg>
